<svg xmlns="http://www.w3.org/2000/svg" width="64" height="64" viewBox="0 0 64 64">
  <defs>
    <linearGradient id="bg" x1="0" y1="0" x2="1" y2="1">
      <stop offset="0" stop-color="#667eea"/>
      <stop offset="1" stop-color="#764ba2"/>
    </linearGradient>
  </defs>
  <!-- 圆形头像背景 -->
  <circle cx="32" cy="32" r="28" fill="url(#bg)"/>
  <!-- 小奇脸部（卡通风格） -->
  <circle cx="32" cy="30" r="16" fill="#ffffff" opacity="0.95"/>
  <!-- 眼睛 -->
  <circle cx="27" cy="28" r="2" fill="#555"/>
  <circle cx="37" cy="28" r="2" fill="#555"/>
  <!-- 微笑嘴巴 -->
  <path d="M25 33c2 4 10 4 12 0" fill="none" stroke="#ff9a76" stroke-width="2" stroke-linecap="round"/>
  <!-- 对话小尾巴 -->
  <path d="M40 44l4 7-8-4" fill="#ffffff" opacity="0.95"/>
  <!-- 问号（表示可以提问） -->
  <path d="M22 19c0-3 2.4-5.2 5.7-5.2 3 0 5.3 1.8 5.3 4.6 0 2.1-1 3.3-2.8 4.3-1.4.8-1.9 1.3-1.9 2.4v1"
        fill="none" stroke="#667eea" stroke-width="2" stroke-linecap="round"/>
  <circle cx="27.2" cy="29.2" r="1.2" fill="#667eea"/>
</svg>
